<svg width="18" height="15" viewBox="0 0 18 15" fill="none" xmlns="http://www.w3.org/2000/svg">
<g clip-path="url(#clip0_2582_54639)">
<path d="M15.75 0.5C16.234 0.5 16.625 0.891016 16.625 1.375V13.625C16.625 14.109 16.234 14.5 15.75 14.5C15.266 14.5 14.875 14.109 14.875 13.625V1.375C14.875 0.891016 15.266 0.5 15.75 0.5ZM12.25 3.125C12.734 3.125 13.125 3.51602 13.125 4V13.625C13.125 14.109 12.734 14.5 12.25 14.5C11.766 14.5 11.375 14.109 11.375 13.625V4C11.375 3.51602 11.766 3.125 12.25 3.125ZM9.625 6.625V13.625C9.625 14.109 9.23398 14.5 8.75 14.5C8.26602 14.5 7.875 14.109 7.875 13.625V6.625C7.875 6.14102 8.26602 5.75 8.75 5.75C9.23398 5.75 9.625 6.14102 9.625 6.625ZM5.25 8.375C5.73398 8.375 6.125 8.76602 6.125 9.25V13.625C6.125 14.109 5.73398 14.5 5.25 14.5C4.76602 14.5 4.375 14.109 4.375 13.625V9.25C4.375 8.76602 4.76602 8.375 5.25 8.375ZM2.625 11.875V13.625C2.625 14.109 2.23398 14.5 1.75 14.5C1.26602 14.5 0.875 14.109 0.875 13.625V11.875C0.875 11.391 1.26602 11 1.75 11C2.23398 11 2.625 11.391 2.625 11.875Z" fill="#6B7280"/>
</g>
<defs>
<clipPath id="clip0_2582_54639">
<rect width="17.5" height="14" fill="white" transform="translate(0 0.5)"/>
</clipPath>
</defs>
</svg>
